<svg xmlns="http://www.w3.org/2000/svg"><style>:root svg:not(:target){display:none}</style><svg fill="none" viewBox="0 0 32 12" id="arrow-right"><path stroke="#000" stroke-width="2" d="M0 6h18"></path><path fill="#000" d="m24 6-6.75 5.2V.8L24 6Z"></path></svg><svg fill="none" viewBox="0 0 27 29" id="boiling-water"><path fill="#fff" d="M11.38 0c-1.64 0-2.9 1.36-2.9 3.08s1.26 3.08 2.9 3.08c1.63 0 2.9-1.36 2.9-3.08S13 0 11.38 0Zm0 1.18c1 0 1.72.84 1.72 1.9 0 1-.8 1.9-1.72 1.9-1 0-1.73-.84-1.73-1.9 0-1 .78-1.9 1.72-1.9ZM.5 24.74c0 1.18.4 2.18 1.36 3 1 .84 2.17.77 2.17.77h19.04c.77 0 1.8-.38 2.62-1.45.85-1 .8-2.36.8-2.36V7.5c0-.44-.12-.6-.75-.6-.64 0-.69.27-.69.59V24.7c-.02.3-.07 1.08-.74 1.72-.74.62-1.45.54-1.45.54s-18.13 0-19.03-.03c-.35-.06-.91-.19-1.45-.9-.51-.73-.41-1.63-.41-1.63V7.18c0-.46-.24-.64-.73-.64s-.74.18-.74.58v17.62ZM16.81 8.43c-1.08.23-2.17.38-4.26 2.35-2.08 2-3.62 1.9-5.16 1.82-1.54-.1-3.17-1.54-3.45-1.9-.33-.36-.9-.12-1.08.11-.16.24-.16.64.1 1 1.27 1.18 2.45 2.08 4.72 2.26a7.5 7.5 0 0 0 5.89-2.26c1.45-1.45 2.17-1.72 3.26-1.9a6.3 6.3 0 0 1 5.08 1.26c1 1.1 1.26.78 1.54.48.54-.72-.23-1.27-1.1-1.9a7.24 7.24 0 0 0-5.52-1.28l-.02-.04Zm-9.06 7.16c-1.18 0-2.08 1-2.08 2.26 0 1.27.9 2.27 2.08 2.27 1.18 0 2.08-1 2.08-2.27s-.9-2.26-2.08-2.26Zm11.78.78c-1.54 0-2.8 1.36-2.8 2.99 0 1.63 1.26 2.99 2.8 2.99 1.54 0 2.81-1.36 2.81-3 0-1.62-1.27-2.98-2.8-2.98Zm0 1.45c.8 0 1.45.7 1.45 1.54a1.5 1.5 0 0 1-1.45 1.54c-.8 0-1.45-.7-1.45-1.54 0-.86.65-1.54 1.45-1.54Z"></path></svg><svg fill="none" viewBox="0 0 20 20" id="burger-close"><path stroke="#000" stroke-width="1.5" d="M0-.75h24.76" transform="matrix(.68659 -.72705 .68659 .72705 2 20)"></path><path stroke="#000" stroke-width="1.5" d="M0-.75h24.76" transform="matrix(.68659 .72705 -.68659 .72705 1 2)"></path></svg><svg fill="none" viewBox="0 0 24 24" id="burger-open"><path stroke="#000" stroke-width="2" d="M0 3h24M0 11h24M0 19h24"></path></svg><svg fill="none" viewBox="0 0 27 31" id="clock"><path fill="#fff"
    d="M6.12 0c-1.066 0-1.066 1.583 0 1.583h6.668v1.604C5.96 3.62.563 9.414.563 16.485c0 4.01 1.75 7.63 4.512 10.069.48.422.544 1.171.107 1.636L3.646 29.74c-.747.686.362 1.752 1.034 1.003l2.006-2.037a1.164 1.164 0 0 1 1.312-.211 12.785 12.785 0 0 0 11.105.063c.427-.211.96-.127 1.301.211l1.942 1.974c.683.633 1.664-.317 1.046-1.003l-1.451-1.477c-.448-.454-.384-1.203.106-1.636a13.467 13.467 0 0 0 3.415-4.583 13.335 13.335 0 0 0 1.194-5.57c0-7.071-5.43-12.876-12.268-13.288V1.583h6.667c1.067 0 1.067-1.583 0-1.583H6.121ZM2.004 16.475c0-6.533 5.195-11.82 11.606-11.82 6.4 0 11.596 5.287 11.596 11.82 0 6.543-5.195 11.841-11.596 11.841-6.4 0-11.606-5.298-11.606-11.841ZM12.799 8.38c0-1.098 1.664-1.098 1.664 0v8.633a.84.84 0 0 1-.25.597.858.858 0 0 1-.604.247.816.816 0 0 1-.57-.23.798.798 0 0 1-.24-.561V8.38Zm-4.993 2.617c.308 0 .604-.12.822-.337a1.144 1.144 0 0 0 0-1.627 1.17 1.17 0 0 0-.822-.336c-.288.027-.555.16-.75.371a1.144 1.144 0 0 0 0 1.547c.195.212.462.344.75.372v.01Zm11.596 0c.308 0 .604-.12.822-.337a1.144 1.144 0 0 0 0-1.627 1.17 1.17 0 0 0-.822-.336c-.288.027-.555.16-.75.371a1.144 1.144 0 0 0 0 1.547c.195.212.462.344.75.372v.01ZM8.969 23.588c0 1.53-2.326 1.53-2.326 0s2.326-1.53 2.326 0Zm4.64 3.44a1.176 1.176 0 0 0 .893-.293 1.153 1.153 0 0 0 .381-.851 1.14 1.14 0 0 0-.38-.852 1.167 1.167 0 0 0-.894-.293c-.287.027-.555.16-.75.371a1.143 1.143 0 0 0 0 1.547c.195.212.463.344.75.372ZM5.491 16.645a1.139 1.139 0 0 1-.297.883 1.162 1.162 0 0 1-.86.377 1.173 1.173 0 0 1-.86-.377 1.148 1.148 0 0 1-.298-.883c.028-.285.162-.55.376-.742a1.17 1.17 0 0 1 1.564 0c.214.193.348.457.375.742Zm17.388 1.15a1.173 1.173 0 0 0 .894-.294 1.152 1.152 0 0 0 .38-.851 1.14 1.14 0 0 0-.38-.852 1.164 1.164 0 0 0-.894-.293c-.287.027-.555.16-.749.371a1.144 1.144 0 0 0 0 1.547c.195.212.462.345.75.372Zm-2.314 5.805c0 1.52-2.326 1.52-2.326-.01 0-1.531 2.326-1.531 2.326 0v.01Z" ></path></svg><svg fill="none" viewBox="0 0 27 34" id="dev-logo"><path fill="#666" d="M13.64.02 13.5 0 0 1.4v24.61L13.5 34 27 26.01V1.41L13.64 0Zm11.6 25L13.5 31.96 1.77 25.02v-10.1l11.68 6.93.02 1.25-8.02-4.75v1.23l8.04 4.8.02 1.3-8.05-4.76v1.22l8.04 4.81 8.12-4.83V16.9l3.62-2.15v10.26Zm0-11.57L22 15.33l-1.48.88-7.06-4.19-.01 1.23 6.04 3.57-.06.03-.13.07-.86.5-4.98-2.95-.01 1.22 3.93 2.33-.93.61-.02.01-2.97-1.74-.01 1.23 1.94 1.13-1.98 1.19L1.8 13.58l11.63-6.96 11.8 6.83Zm0-1.22L13.43 5.3 1.77 12.22V2.99L13.5 1.76 25.23 3v9.24Z"></path></svg><svg fill="none" viewBox="0 0 18 14" id="envelope"><path stroke="#000" stroke-linecap="round" stroke-linejoin="round" d="M.5 5.5v8h17v-8M.5.5h17v2L9 8.5l-8.5-6v-2Z"></path></svg><svg fill="none" viewBox="0 0 24 30" id="fork-and-knife"><path fill="#fff" fill-rule="evenodd" d="M18.12.08a1 1 0 0 1 1.09.21c.9.91 2.1 2.88 3.06 5.92A42.6 42.6 0 0 1 24 19a1 1 0 0 1-1 1h-3.5v9a1 1 0 1 1-2 0V1a1 1 0 0 1 .62-.92ZM19.5 18H22a39.62 39.62 0 0 0-1.64-11.19 22.4 22.4 0 0 0-.86-2.3V18ZM5.5 0a1 1 0 0 1 1 1v28a1 1 0 1 1-2 0V1a1 1 0 0 1 1-1Z" clip-rule="evenodd"></path><path fill="#fff" fill-rule="evenodd" d="M1 0a1 1 0 0 1 1 1v5.5c0 .56.2 1.32.7 1.92.48.56 1.31 1.08 2.8 1.08a1 1 0 1 1 0 2 5.41 5.41 0 0 1-4.33-1.8A5.07 5.07 0 0 1 0 6.5V1a1 1 0 0 1 1-1Z" clip-rule="evenodd"></path><path fill="#fff" fill-rule="evenodd" d="M10 0a1 1 0 0 0-1 1v5.5c0 .56-.2 1.32-.7 1.92-.48.56-1.31 1.08-2.8 1.08a1 1 0 0 0 0 2c2.01 0 3.43-.73 4.33-1.8A5.07 5.07 0 0 0 11 6.5V1a1 1 0 0 0-1-1Z" clip-rule="evenodd"></path></svg><svg fill="none" viewBox="0 0 19 15" id="icon-checkmark"><path fill="#68B738" d="M7 11.72 1.3 5.27.25 6.46 7 14.09 18.25 1.37 17.2.09 7 11.72Z"></path></svg><svg fill="none" viewBox="0 0 25 28" id="leaf"><path fill="#fff"
    d="M24.84.77a.95.95 0 0 0-.9-.77h-.01C18.99.03 6.98.92 2.13 8.38-.38 12.26-.6 17.29 1.5 23.34l.07.13a25.93 25.93 0 0 0-1.04 3.32c-.11.54.21 1.07.72 1.19l.2.02c.43 0 .81-.32.9-.79.03-.1 2.42-10.37 10.86-16.38.43-.3.55-.93.26-1.38a.9.9 0 0 0-1.3-.28c-4.79 3.4-7.74 8-9.47 11.65-1.24-4.57-.92-8.37.99-11.3C7.42 3.76 16.3 2.37 21.66 2.07c-1.16 1.8-2.41 5.1-2.41 10.93 0 3.12-.83 5.52-2.47 7.14-2.62 2.6-6.88 2.83-10 2.58-.51-.04-.96.38-1 .93-.04.55.35 1.03.86 1.07.63.05 1.3.08 1.99.08 3.17 0 6.86-.66 9.42-3.2 2.04-2 3.07-4.9 3.07-8.6 0-9.1 3.22-11.1 3.23-11.1.4-.21.6-.68.5-1.13Z" ></path></svg><svg fill="none" viewBox="0 0 16 16" id="phone"><path stroke="#000" stroke-linecap="round" stroke-linejoin="round" d="M7 8h8.5m0 0L13 5.5M15.5 8 13 10.5M5.5.5v5h-3v5h3v5H3c-1.5 0-2.5-1-2.5-2.5V3C.5 1.5 1.5.5 3 .5h2.5Z"></path></svg><svg fill="none" viewBox="0 0 24 18" id="slider-mark"><path fill="currentColor" d="M8 0 0 9l8 9V0ZM24 9l-8-9v18l8-9Z" ></path></svg><svg fill="none" viewBox="0 0 20 18" id="telegram"><path fill="#666" fill-rule="evenodd" d="M19.46.15c.18.15.27.38.23.61l-2.63 15.76a.66.66 0 0 1-1.01.44l-7.88-5.25a.66.66 0 0 1-.15-.96l2.61-3.26-4.36 2.9a.66.66 0 0 1-.65.05L.36 7.8a.66.66 0 0 1 .08-1.2L18.82.03a.66.66 0 0 1 .64.11ZM2.33 7.32 5.86 9.1l7.56-5.04a.66.66 0 0 1 .88.96l-4.8 6 6.43 4.3 2.28-13.66L2.33 7.32Z" clip-rule="evenodd"></path></svg><svg fill="none" viewBox="0 0 27 17" id="vk"><path fill="#666"
    d="M0 2.34C0 1.48.52 1.02 1.55.96l3.97.02c.26 0 .44.13.53.38.4 1.26.86 2.34 1.37 3.25.5.92 1.17 1.97 1.99 3.16.07.15.18.23.34.23.13 0 .22-.06.3-.18l.07-.28.03-4.35c0-.3-.07-.5-.23-.6-.15-.1-.43-.18-.83-.23-.32-.05-.48-.23-.48-.55 0-.07 0-.12.02-.15C9.01.57 10.07.03 11.83.03l1.5-.03C14 0 14.55.16 15 .48c.44.32.67.82.67 1.5V7.7c.12.08.24.12.34.12.27 0 .5-.15.7-.45 1.95-2.58 3-4.31 3.17-5.18 0-.02.01-.06.05-.13.12-.25.33-.47.61-.65.29-.19.53-.31.75-.38a.55.55 0 0 1 .24-.05h4.13l.26.03c.36 0 .63.16.83.47.07.1.12.21.15.33a2.4 2.4 0 0 1 .06.55v.18a6.11 6.11 0 0 1-.94 2.2c-.5.78-1.15 1.62-1.93 2.53-.79.9-1.27 1.5-1.47 1.78-.16.2-.24.39-.24.56 0 .13.07.28.21.45l3.9 4.63c.2.26.31.56.31.88 0 .38-.16.7-.48.95-.32.25-.7.4-1.14.43l-.46.02h-4.04c-.02 0-.06 0-.11.02a.86.86 0 0 1-.1.01c-.4 0-.76-.16-1.1-.48-.12-.13-.96-1.12-2.5-2.97a1.39 1.39 0 0 0-.38-.32 38.47 38.47 0 0 0-.53 2.24l-.08.42a1.4 1.4 0 0 1-1.12 1.06l-.37.02h-2.61c-1.48 0-2.95-.63-4.41-1.9a19.3 19.3 0 0 1-3.96-4.95A47.51 47.51 0 0 1 .13 3.07 1.92 1.92 0 0 1 0 2.34Zm16.01 6.51c-.37 0-.7-.1-1.01-.29a.9.9 0 0 1-.45-.79V2c0-.34-.1-.58-.27-.72-.18-.14-.49-.21-.93-.21l-1.52.05c-.76 0-1.34.12-1.73.37.78.36 1.17.93 1.17 1.71v4.43a1.5 1.5 0 0 1-.53 1.04c-.32.28-.68.42-1.07.42-.53 0-.94-.24-1.22-.73a26.16 26.16 0 0 1-3.1-5.63l-.23-.66-3.55-.02c-.23 0-.36.01-.38.03-.03.03-.04.1-.04.22 0 .15.01.3.05.48l.56 1.4c1.49 3.64 3.11 6.51 4.86 8.6 1.75 2.1 3.47 3.15 5.16 3.15h2.66c.1 0 .19-.03.24-.09.05-.06.1-.17.13-.34l.06-.25.5-2.21c.15-.3.27-.5.38-.6.2-.2.42-.28.69-.28.43 0 .86.24 1.3.73l2.27 2.71c.14.22.3.33.45.33h4.4c.53 0 .8-.13.8-.38a.47.47 0 0 0-.08-.25l-3.87-4.55c-.3-.35-.45-.73-.45-1.13 0-.4.14-.8.43-1.16.23-.34.68-.9 1.34-1.67.67-.78 1.25-1.51 1.75-2.19.5-.68.82-1.3.98-1.85l.08-.33a.37.37 0 0 1-.02-.16c0-.07-.01-.14-.03-.19h-4.18c-.27.1-.48.25-.64.45L20.8 3c-.45 1.16-1.6 2.94-3.5 5.36-.36.33-.8.5-1.3.5Z" ></path></svg><svg fill="none" viewBox="0 0 24 19" id="youtube"><path fill="#666" d="m15.85 8.8-5.24-3.5a.65.65 0 0 0-1.01.55v6.98a.65.65 0 0 0 1.01.54l5.24-3.49a.65.65 0 0 0 0-1.09Zm-4.94 2.8V7.08l3.4 2.27-3.4 2.27Zm12.48-8.56a2.4 2.4 0 0 0-1.45-1.63C18.22-.02 12.25 0 12 0S5.78-.02 2.06 1.4A2.4 2.4 0 0 0 .61 3.05 25.32 25.32 0 0 0 0 9.34c0 3.26.33 5.22.61 6.3a2.4 2.4 0 0 0 1.45 1.63c3.72 1.43 9.69 1.4 9.94 1.4h.08c.75 0 6.31-.04 9.86-1.4a2.4 2.4 0 0 0 1.45-1.64c.28-1.07.61-3.03.61-6.3 0-3.25-.33-5.22-.61-6.29Zm-1.27 12.27a1.1 1.1 0 0 1-.65.74c-3.5 1.34-9.4 1.32-9.47 1.32-.07 0-5.98.02-9.47-1.32a1.09 1.09 0 0 1-.65-.74c-.27-1-.57-2.85-.57-5.97 0-3.12.3-4.97.57-5.97a1.1 1.1 0 0 1 .65-.74C6.03 1.29 11.93 1.3 12 1.3c.07 0 5.98-.02 9.47 1.32a1.1 1.1 0 0 1 .65.74c.27 1 .57 2.85.57 5.97 0 3.12-.3 4.96-.57 5.97Z"></path></svg></svg>