<svg xmlns="http://www.w3.org/2000/svg" width="24" height="30" fill="none" viewBox="0 0 24 30"><path fill="#fff" fill-rule="evenodd" d="M18.12.08a1 1 0 0 1 1.09.21c.9.91 2.1 2.88 3.06 5.92A42.6 42.6 0 0 1 24 19a1 1 0 0 1-1 1h-3.5v9a1 1 0 1 1-2 0V1a1 1 0 0 1 .62-.92ZM19.5 18H22a39.62 39.62 0 0 0-1.64-11.19 22.4 22.4 0 0 0-.86-2.3V18ZM5.5 0a1 1 0 0 1 1 1v28a1 1 0 1 1-2 0V1a1 1 0 0 1 1-1Z" clip-rule="evenodd"/><path fill="#fff" fill-rule="evenodd" d="M1 0a1 1 0 0 1 1 1v5.5c0 .56.2 1.32.7 1.92.48.56 1.31 1.08 2.8 1.08a1 1 0 1 1 0 2 5.41 5.41 0 0 1-4.33-1.8A5.07 5.07 0 0 1 0 6.5V1a1 1 0 0 1 1-1Z" clip-rule="evenodd"/><path fill="#fff" fill-rule="evenodd" d="M10 0a1 1 0 0 0-1 1v5.5c0 .56-.2 1.32-.7 1.92-.48.56-1.31 1.08-2.8 1.08a1 1 0 0 0 0 2c2.01 0 3.43-.73 4.33-1.8A5.07 5.07 0 0 0 11 6.5V1a1 1 0 0 0-1-1Z" clip-rule="evenodd"/></svg>